<?xml version="1.0" standalone="no"?>
<!DOCTYPE svg PUBLIC "-//W3C//DTD SVG 20010904//EN"
 "http://www.w3.org/TR/2001/REC-SVG-20010904/DTD/svg10.dtd">
<svg version="1.0" xmlns="http://www.w3.org/2000/svg"
 width="96.000000pt" height="96.000000pt" viewBox="0 0 96.000000 96.000000"
 preserveAspectRatio="xMidYMid meet">
<metadata>
Created by potrace 1.11, written by Peter Selinger 2001-2013
</metadata>
<g transform="translate(0.000000,96.000000) scale(0.100000,-0.100000)"
fill="#000000" stroke="none">
<path d="M381 939 c-78 -15 -169 -65 -230 -127 -276 -275 -120 -738 267 -793
139 -20 283 30 388 135 144 144 178 351 88 534 -94 191 -301 293 -513 251z
m186 -254 c82 -34 117 -96 117 -205 0 -98 -26 -158 -85 -197 -40 -26 -48 -28
-153 -28 l-111 0 -3 214 c-2 160 1 217 10 229 10 12 29 14 100 8 49 -3 105
-13 125 -21z"/>
<path d="M392 474 l3 -179 64 3 c113 5 161 57 161 172 0 70 -16 115 -54 150
-23 21 -39 25 -102 28 l-74 4 2 -178z"/>
</g>
</svg>
