<?xml version="1.0" encoding="UTF-8" standalone="no"?>
<svg
   xmlns:svg="http://www.w3.org/2000/svg"
   xmlns="http://www.w3.org/2000/svg"
   viewBox="0 0 249.67146 43.226531"
   height="43.226532"
   width="249.67146"
   id="svg5246"
   version="1.1">
<defs
     id="defs5250"><clipPath
       id="clipPath5268"
       clipPathUnits="userSpaceOnUse"><path
         id="path5266"
         d="m 1174.775,0 v 96.33 l 134.83,229.665 H 1744.68 L 1555.014,0 Z" /></clipPath><clipPath
       id="clipPath5284"
       clipPathUnits="userSpaceOnUse"><path
         id="path5282"
         d="M 1516.036,505.949 1414.71,333.355 h 178.757 l 100.417,172.594 z" /></clipPath><clipPath
       id="clipPath5320"
       clipPathUnits="userSpaceOnUse"><path
         id="path5318"
         d="m 1541.687,739.463 h 190.149 v 45.734 h -190.149 z" /></clipPath><clipPath
       id="clipPath5590"
       clipPathUnits="userSpaceOnUse"><path
         id="path5588"
         d="m 595.213,505.949 h 595.276 v 335.94 H 595.213 Z" /></clipPath><clipPath
       id="clipPath5622"
       clipPathUnits="userSpaceOnUse"><path
         id="path5620"
         d="M 0,0 H 2381.102 V 841.89 H 0 Z" /></clipPath><clipPath
       id="clipPath5750"
       clipPathUnits="userSpaceOnUse"><path
         id="path5748"
         d="M 0,0 H 2381.102 V 841.89 H 0 Z" /></clipPath><clipPath
       id="clipPath5782"
       clipPathUnits="userSpaceOnUse"><path
         id="path5780"
         d="M 0,0 H 2381.102 V 841.89 H 0 Z" /></clipPath><clipPath
       id="clipPath5806"
       clipPathUnits="userSpaceOnUse"><path
         id="path5804"
         d="M 0,0 H 2381.102 V 841.89 H 0 Z" /></clipPath><clipPath
       id="clipPath5848"
       clipPathUnits="userSpaceOnUse"><path
         id="path5846"
         d="M 0,0 H 2381.102 V 841.89 H 0 Z" /></clipPath><clipPath
       id="clipPath5856"
       clipPathUnits="userSpaceOnUse"><path
         id="path5854"
         d="M 290.173,256.932 H 402.657 V 139.482 H 290.173 Z" /></clipPath><clipPath
       id="clipPath5922"
       clipPathUnits="userSpaceOnUse"><path
         id="path5920"
         d="M 0,0 H 2381.102 V 841.89 H 0 Z" /></clipPath><clipPath
       id="clipPath5950"
       clipPathUnits="userSpaceOnUse"><path
         id="path5948"
         d="M 0,0 H 2381.102 V 841.89 H 0 Z" /></clipPath><clipPath
       id="clipPath5958"
       clipPathUnits="userSpaceOnUse"><path
         id="path5956"
         d="m 257.705,122.679 h 188.44 V -45.87 h -188.44 z" /></clipPath><clipPath
       id="clipPath5978"
       clipPathUnits="userSpaceOnUse"><path
         id="path5976"
         d="M 1703.487,505.949 1602.16,333.355 h 217.735 l 5.554,9.547 v 163.047 z" /></clipPath><clipPath
       id="clipPath6030"
       clipPathUnits="userSpaceOnUse"><path
         id="path6028"
         d="m 651.906,56.693 h 17.087 V 73.78 h -17.087 z" /></clipPath><clipPath
       id="clipPath6046"
       clipPathUnits="userSpaceOnUse"><path
         id="path6044"
         d="m 708.278,59.026 h 16.848 v 12.641 h -16.848 z" /></clipPath><clipPath
       id="clipPath6062"
       clipPathUnits="userSpaceOnUse"><path
         id="path6060"
         d="M 680.723,56.693 H 697.81 V 73.78 h -17.087 z" /></clipPath><clipPath
       id="clipPath6086"
       clipPathUnits="userSpaceOnUse"><path
         id="path6084"
         d="m 1052.51,43.712 h 81.3 v 45.733 h -81.3 z" /></clipPath><clipPath
       id="clipPath6356"
       clipPathUnits="userSpaceOnUse"><path
         id="path6354"
         d="m 651.906,425.176 h 49.732 v 49.73 h -49.732 z" /></clipPath><clipPath
       id="clipPath6576"
       clipPathUnits="userSpaceOnUse"><path
         id="path6574"
         d="m 793.639,433.176 h 88.582 v 47.904 h -88.582 z" /></clipPath><clipPath
       id="clipPath6590"
       clipPathUnits="userSpaceOnUse"><path
         id="path6588"
         d="M 0,0 H 2381.102 V 841.89 H 0 Z" /></clipPath><clipPath
       id="clipPath6598"
       clipPathUnits="userSpaceOnUse"><path
         id="path6596"
         d="m 1796.1,968.464 h 805.63 V 403.822 H 1796.1 Z" /></clipPath><clipPath
       id="clipPath6628"
       clipPathUnits="userSpaceOnUse"><path
         id="path6626"
         d="M 0,0 H 2381.102 V 841.89 H 0 Z" /></clipPath><clipPath
       id="clipPath6862"
       clipPathUnits="userSpaceOnUse"><path
         id="path6860"
         d="m 728.144,425.384 h 49.316 v 49.315 h -49.316 z" /></clipPath><clipPath
       id="clipPath6878"
       clipPathUnits="userSpaceOnUse"><path
         id="path6876"
         d="m 651.906,383.564 h 125.555 v 19.018 H 651.906 Z" /></clipPath></defs><g
     transform="matrix(1.3333333,0,0,-1.3333333,-2055.5837,1046.9293)"
     id="g5254"><g
       transform="translate(1628.9279,784.0305)"
       id="g5310"><path
         id="path5312"
         style="fill:#000000;fill-opacity:1;fill-rule:nonzero;stroke:none"
         d="M 0,0 H 0.697 V -2.251 H 3.454 V 0 H 4.151 V -5.237 H 3.454 v 2.399 H 0.697 V -5.237 H 0 Z" /></g><g
       id="g5314"><g
         clip-path="url(#clipPath5320)"
         id="g5316"><g
           transform="translate(1636.5818,779.2562)"
           id="g5322"><path
             id="path5324"
             style="fill:#000000;fill-opacity:1;fill-rule:nonzero;stroke:none"
             d="M 0,0 C 1.276,0 1.812,1.1 1.812,2.156 1.812,3.212 1.276,4.313 0,4.313 -1.276,4.313 -1.812,3.212 -1.812,2.156 -1.812,1.1 -1.276,0 0,0 m 0,4.899 c 1.665,0 2.508,-1.32 2.508,-2.743 0,-1.423 -0.843,-2.743 -2.508,-2.743 -1.665,0 -2.509,1.32 -2.509,2.743 0,1.423 0.844,2.743 2.509,2.743" /></g><g
           transform="translate(1643.7667,782.454)"
           id="g5326"><path
             id="path5328"
             style="fill:#000000;fill-opacity:1;fill-rule:nonzero;stroke:none"
             d="m 0,0 c -0.147,0.74 -0.741,1.115 -1.467,1.115 -1.247,0 -1.775,-1.027 -1.775,-2.12 0,-1.196 0.528,-2.193 1.782,-2.193 0.917,0 1.445,0.645 1.511,1.511 h 0.697 c -0.132,-1.306 -0.946,-2.098 -2.266,-2.098 -1.629,0 -2.421,1.203 -2.421,2.729 0,1.518 0.865,2.757 2.479,2.757 1.093,0 1.995,-0.586 2.156,-1.701 z" /></g><g
           transform="translate(1645.5239,784.0305)"
           id="g5330"><path
             id="path5332"
             style="fill:#000000;fill-opacity:1;fill-rule:nonzero;stroke:none"
             d="M 0,0 H 0.697 V -2.251 H 3.454 V 0 H 4.151 V -5.237 H 3.454 v 2.399 H 0.697 V -5.237 H 0 Z" /></g><g
           transform="translate(1653.9921,782.498)"
           id="g5334"><path
             id="path5336"
             style="fill:#000000;fill-opacity:1;fill-rule:nonzero;stroke:none"
             d="m 0,0 c -0.081,0.748 -0.58,1.071 -1.298,1.071 -0.587,0 -1.173,-0.213 -1.173,-0.895 0,-0.645 0.835,-0.741 1.679,-0.932 0.836,-0.19 1.672,-0.484 1.672,-1.511 0,-1.114 -1.093,-1.562 -2.046,-1.562 -1.173,0 -2.164,0.572 -2.164,1.849 h 0.66 c 0,-0.88 0.734,-1.262 1.526,-1.262 0.63,0 1.327,0.198 1.327,0.953 0,0.719 -0.836,0.844 -1.672,1.027 -0.836,0.184 -1.679,0.425 -1.679,1.386 0,1.064 0.946,1.533 1.899,1.533 1.071,0 1.885,-0.506 1.929,-1.657 z" /></g><g
           transform="translate(1659.5344,782.454)"
           id="g5338"><path
             id="path5340"
             style="fill:#000000;fill-opacity:1;fill-rule:nonzero;stroke:none"
             d="m 0,0 c -0.147,0.74 -0.741,1.115 -1.467,1.115 -1.247,0 -1.775,-1.027 -1.775,-2.12 0,-1.196 0.528,-2.193 1.782,-2.193 0.917,0 1.445,0.645 1.511,1.511 h 0.697 c -0.132,-1.306 -0.946,-2.098 -2.266,-2.098 -1.628,0 -2.42,1.203 -2.42,2.729 0,1.518 0.865,2.757 2.478,2.757 1.093,0 1.995,-0.586 2.156,-1.701 z" /></g><g
           transform="translate(1661.299,784.0305)"
           id="g5342"><path
             id="path5344"
             style="fill:#000000;fill-opacity:1;fill-rule:nonzero;stroke:none"
             d="M 0,0 H 0.697 V -2.251 H 3.454 V 0 H 4.151 V -5.237 H 3.454 v 2.399 H 0.697 V -5.237 H 0 Z" /></g><g
           transform="translate(1670.9191,780.6864)"
           id="g5346"><path
             id="path5348"
             style="fill:#000000;fill-opacity:1;fill-rule:nonzero;stroke:none"
             d="m 0,0 c 0,-1.32 -0.755,-2.017 -2.061,-2.017 -1.35,0 -2.149,0.623 -2.149,2.017 v 3.344 h 0.697 V 0 c 0,-0.924 0.527,-1.43 1.452,-1.43 0.88,0 1.364,0.506 1.364,1.43 V 3.344 H 0 Z" /></g><g
           transform="translate(1672.1774,784.0305)"
           id="g5350"><path
             id="path5352"
             style="fill:#000000;fill-opacity:1;fill-rule:nonzero;stroke:none"
             d="M 0,0 H 0.696 V -4.649 H 3.469 V -5.237 H 0 Z" /></g><g
           transform="translate(1676.3923,784.0305)"
           id="g5354"><path
             id="path5356"
             style="fill:#000000;fill-opacity:1;fill-rule:nonzero;stroke:none"
             d="M 0,0 H 3.616 V -0.586 H 0.697 v -1.665 h 2.72 v -0.587 h -2.72 v -1.811 h 2.94 V -5.237 H 0 Z" /></g><g
           transform="translate(1683.1949,784.0305)"
           id="g5358"><path
             id="path5360"
             style="fill:#000000;fill-opacity:1;fill-rule:nonzero;stroke:none"
             d="M 0,0 H 3.44 V -0.586 H 0.696 V -2.251 H 3.102 V -2.838 H 0.696 V -5.237 H 0 Z" /></g><path
           id="path5362"
           style="fill:#000000;fill-opacity:1;fill-rule:nonzero;stroke:none"
           d="m 1689.983,785.197 h 0.661 v -0.763 h -0.661 z m -1.378,0 h 0.661 v -0.763 h -0.661 z m 3.124,-4.511 c 0,-1.32 -0.754,-2.017 -2.06,-2.017 -1.351,0 -2.149,0.623 -2.149,2.017 v 3.344 h 0.696 v -3.344 c 0,-0.924 0.528,-1.43 1.453,-1.43 0.88,0 1.364,0.506 1.364,1.43 v 3.344 h 0.696 z" /><g
           transform="translate(1695.1367,781.6175)"
           id="g5364"><path
             id="path5366"
             style="fill:#000000;fill-opacity:1;fill-rule:nonzero;stroke:none"
             d="m 0,0 c 0.652,0 1.211,0.169 1.211,0.932 0,0.513 -0.279,0.894 -0.932,0.894 H -1.452 V 0 Z m -2.149,2.413 h 2.465 c 0.983,0 1.591,-0.535 1.591,-1.371 0,-0.631 -0.279,-1.152 -0.909,-1.328 V -0.301 C 1.606,-0.418 1.732,-0.865 1.782,-1.379 1.826,-1.892 1.797,-2.464 2.09,-2.824 H 1.313 C 1.115,-2.611 1.225,-2.046 1.122,-1.533 1.049,-1.019 0.925,-0.586 0.25,-0.586 h -1.702 v -2.238 h -0.697 z" /></g><g
           transform="translate(1630.1158,774.8015)"
           id="g5368"><path
             id="path5370"
             style="fill:#000000;fill-opacity:1;fill-rule:nonzero;stroke:none"
             d="M 0,0 H -1.746 V 0.587 H 2.443 V 0 H 0.697 V -4.65 H 0 Z" /></g><g
           transform="translate(1633.2821,775.388)"
           id="g5372"><path
             id="path5374"
             style="fill:#000000;fill-opacity:1;fill-rule:nonzero;stroke:none"
             d="M 0,0 H 3.616 V -0.587 H 0.697 v -1.664 h 2.72 V -2.838 H 0.697 V -4.65 H 3.638 V -5.237 H 0 Z" /></g><g
           transform="translate(1641.5896,773.8115)"
           id="g5376"><path
             id="path5378"
             style="fill:#000000;fill-opacity:1;fill-rule:nonzero;stroke:none"
             d="m 0,0 c -0.147,0.74 -0.741,1.115 -1.467,1.115 -1.247,0 -1.775,-1.027 -1.775,-2.12 0,-1.196 0.528,-2.193 1.782,-2.193 0.917,0 1.445,0.645 1.511,1.511 h 0.697 c -0.132,-1.306 -0.946,-2.098 -2.267,-2.098 -1.627,0 -2.42,1.203 -2.42,2.729 0,1.518 0.866,2.757 2.479,2.757 1.093,0 1.995,-0.586 2.156,-1.701 z" /></g><g
           transform="translate(1643.3468,775.388)"
           id="g5380"><path
             id="path5382"
             style="fill:#000000;fill-opacity:1;fill-rule:nonzero;stroke:none"
             d="M 0,0 H 0.697 V -2.251 H 3.454 V 0 H 4.152 V -5.237 H 3.454 v 2.399 H 0.697 V -5.237 H 0 Z" /></g><g
           transform="translate(1648.7786,775.388)"
           id="g5384"><path
             id="path5386"
             style="fill:#000000;fill-opacity:1;fill-rule:nonzero;stroke:none"
             d="M 0,0 H 0.74 L 3.498,-4.247 H 3.513 V 0 h 0.66 V -5.237 H 3.411 L 0.674,-1.034 H 0.66 V -5.237 H 0 Z" /></g><path
           id="path5388"
           style="fill:#000000;fill-opacity:1;fill-rule:nonzero;stroke:none"
           d="m 1654.254,775.388 h 0.697 v -5.237 h -0.697 z" /><g
           transform="translate(1656.2698,775.388)"
           id="g5390"><path
             id="path5392"
             style="fill:#000000;fill-opacity:1;fill-rule:nonzero;stroke:none"
             d="M 0,0 H 0.697 V -2.611 L 3.352,0 H 4.254 L 2.046,-2.112 4.342,-5.237 H 3.462 L 1.57,-2.589 0.697,-3.403 V -5.237 H 0 Z" /></g><g
           transform="translate(1667.6638,772.0439)"
           id="g5394"><path
             id="path5396"
             style="fill:#000000;fill-opacity:1;fill-rule:nonzero;stroke:none"
             d="m 0,0 c 0,-1.32 -0.755,-2.017 -2.061,-2.017 -1.35,0 -2.149,0.623 -2.149,2.017 v 3.344 h 0.697 V 0 c 0,-0.924 0.528,-1.43 1.452,-1.43 0.88,0 1.364,0.506 1.364,1.43 V 3.344 H 0 Z" /></g><g
           transform="translate(1668.9148,775.388)"
           id="g5398"><path
             id="path5400"
             style="fill:#000000;fill-opacity:1;fill-rule:nonzero;stroke:none"
             d="M 0,0 H 0.741 L 3.499,-4.247 H 3.513 V 0 H 4.174 V -5.237 H 3.411 L 0.675,-1.034 H 0.66 V -5.237 H 0 Z" /></g><g
           transform="translate(1675.0581,770.7385)"
           id="g5402"><path
             id="path5404"
             style="fill:#000000;fill-opacity:1;fill-rule:nonzero;stroke:none"
             d="m 0,0 h 1.159 c 0.476,0 1.76,0.132 1.76,2.061 0,1.247 -0.462,2.002 -1.746,2.002 H 0 Z M -0.697,4.65 H 1.1 c 1.613,0 2.516,-0.807 2.516,-2.494 0,-1.753 -0.77,-2.743 -2.516,-2.743 h -1.797 z" /></g><g
           transform="translate(1686.569,770.1514)"
           id="g5406"><path
             id="path5408"
             style="fill:#000000;fill-opacity:1;fill-rule:nonzero;stroke:none"
             d="M 0,0 H -0.726 L -1.922,4.401 H -1.936 L -3.147,0 h -0.726 l -1.341,5.237 h 0.71 L -3.477,0.88 h 0.015 l 1.173,4.357 h 0.756 L -0.374,0.88 h 0.014 l 1.063,4.357 h 0.698 z" /></g><path
           id="path5410"
           style="fill:#000000;fill-opacity:1;fill-rule:nonzero;stroke:none"
           d="m 1688.794,775.388 h 0.697 v -5.237 h -0.697 z" /><g
           transform="translate(1692.9596,772.975)"
           id="g5412"><path
             id="path5414"
             style="fill:#000000;fill-opacity:1;fill-rule:nonzero;stroke:none"
             d="m 0,0 c 0.652,0 1.209,0.169 1.209,0.932 0,0.513 -0.277,0.894 -0.931,0.894 H -1.453 V 0 Z m -2.149,2.413 h 2.464 c 0.982,0 1.592,-0.535 1.592,-1.371 0,-0.631 -0.279,-1.152 -0.91,-1.328 V -0.301 C 1.606,-0.418 1.73,-0.865 1.782,-1.379 1.826,-1.892 1.797,-2.464 2.09,-2.824 H 1.313 c -0.198,0.213 -0.088,0.778 -0.191,1.291 -0.074,0.514 -0.198,0.946 -0.873,0.946 h -1.702 v -2.237 h -0.696 z" /></g><g
           transform="translate(1697.0646,774.8015)"
           id="g5416"><path
             id="path5418"
             style="fill:#000000;fill-opacity:1;fill-rule:nonzero;stroke:none"
             d="M 0,0 H -1.746 V 0.587 H 2.442 V 0 H 0.696 V -4.65 H 0 Z" /></g><g
           transform="translate(1703.2599,773.8555)"
           id="g5420"><path
             id="path5422"
             style="fill:#000000;fill-opacity:1;fill-rule:nonzero;stroke:none"
             d="m 0,0 c -0.081,0.748 -0.579,1.071 -1.298,1.071 -0.587,0 -1.174,-0.213 -1.174,-0.895 0,-0.645 0.837,-0.741 1.68,-0.932 0.836,-0.19 1.672,-0.483 1.672,-1.511 0,-1.114 -1.093,-1.562 -2.046,-1.562 -1.174,0 -2.164,0.572 -2.164,1.849 h 0.661 c 0,-0.88 0.733,-1.262 1.524,-1.262 0.631,0 1.329,0.198 1.329,0.953 0,0.719 -0.836,0.844 -1.673,1.027 -0.836,0.184 -1.679,0.426 -1.679,1.386 0,1.064 0.945,1.533 1.9,1.533 1.071,0 1.884,-0.505 1.928,-1.657 z" /></g><g
           transform="translate(1708.8027,773.8115)"
           id="g5424"><path
             id="path5426"
             style="fill:#000000;fill-opacity:1;fill-rule:nonzero;stroke:none"
             d="m 0,0 c -0.148,0.74 -0.741,1.115 -1.468,1.115 -1.246,0 -1.774,-1.027 -1.774,-2.12 0,-1.196 0.528,-2.193 1.781,-2.193 0.918,0 1.445,0.645 1.512,1.511 h 0.696 c -0.132,-1.306 -0.945,-2.098 -2.266,-2.098 -1.628,0 -2.421,1.203 -2.421,2.729 0,1.518 0.867,2.757 2.479,2.757 1.093,0 1.996,-0.586 2.157,-1.701 z" /></g><g
           transform="translate(1710.5668,775.388)"
           id="g5428"><path
             id="path5430"
             style="fill:#000000;fill-opacity:1;fill-rule:nonzero;stroke:none"
             d="M 0,0 H 0.696 V -2.251 H 3.454 V 0 H 4.151 V -5.237 H 3.454 v 2.399 H 0.696 V -5.237 H 0 Z" /></g><g
           transform="translate(1716.9081,772.3149)"
           id="g5432"><path
             id="path5434"
             style="fill:#000000;fill-opacity:1;fill-rule:nonzero;stroke:none"
             d="M 0,0 H 1.776 L 0.902,2.443 H 0.888 Z m 0.521,3.073 h 0.77 L 3.337,-2.163 H 2.567 L 1.995,-0.586 H -0.22 l -0.587,-1.577 h -0.719 z" /></g><g
           transform="translate(1720.8953,775.388)"
           id="g5436"><path
             id="path5438"
             style="fill:#000000;fill-opacity:1;fill-rule:nonzero;stroke:none"
             d="M 0,0 H 3.44 V -0.587 H 0.696 V -2.251 H 3.102 V -2.838 H 0.696 V -5.237 H 0 Z" /></g><g
           transform="translate(1726.4456,774.8015)"
           id="g5440"><path
             id="path5442"
             style="fill:#000000;fill-opacity:1;fill-rule:nonzero;stroke:none"
             d="M 0,0 H -1.746 V 0.587 H 2.442 V 0 H 0.696 V -4.65 H 0 Z" /></g><g
           transform="translate(1629.6248,762.0959)"
           id="g5444"><path
             id="path5446"
             style="fill:#f59c00;fill-opacity:1;fill-rule:nonzero;stroke:none"
             d="m 0,0 h 1.159 c 0.476,0 1.76,0.132 1.76,2.061 0,1.247 -0.462,2.002 -1.746,2.002 H 0 Z M -0.697,4.649 H 1.1 c 1.613,0 2.516,-0.806 2.516,-2.493 0,-1.753 -0.77,-2.743 -2.516,-2.743 h -1.797 z" /></g><g
           transform="translate(1636.3766,764.3325)"
           id="g5448"><path
             id="path5450"
             style="fill:#f59c00;fill-opacity:1;fill-rule:nonzero;stroke:none"
             d="m 0,0 c 0.653,0 1.21,0.169 1.21,0.932 0,0.513 -0.278,0.894 -0.931,0.894 H -1.452 V 0 Z m -2.149,2.413 h 2.465 c 0.982,0 1.591,-0.535 1.591,-1.371 0,-0.631 -0.279,-1.152 -0.909,-1.328 V -0.301 C 1.606,-0.418 1.731,-0.865 1.782,-1.378 1.826,-1.892 1.797,-2.464 2.09,-2.823 H 1.313 c -0.198,0.212 -0.088,0.777 -0.191,1.29 -0.073,0.514 -0.198,0.947 -0.873,0.947 h -1.701 v -2.237 h -0.697 z" /></g><g
           transform="translate(1639.3956,766.7454)"
           id="g5452"><path
             id="path5454"
             style="fill:#f59c00;fill-opacity:1;fill-rule:nonzero;stroke:none"
             d="M 0,0 H 3.616 V -0.586 H 0.696 V -2.251 H 3.418 V -2.838 H 0.696 V -4.649 H 3.638 V -5.236 H 0 Z" /></g><g
           transform="translate(1647.0502,765.213)"
           id="g5456"><path
             id="path5458"
             style="fill:#f59c00;fill-opacity:1;fill-rule:nonzero;stroke:none"
             d="m 0,0 c -0.081,0.748 -0.58,1.071 -1.298,1.071 -0.587,0 -1.174,-0.213 -1.174,-0.895 0,-0.645 0.836,-0.741 1.68,-0.932 0.836,-0.19 1.672,-0.483 1.672,-1.511 0,-1.114 -1.093,-1.562 -2.046,-1.562 -1.174,0 -2.164,0.572 -2.164,1.849 h 0.66 c 0,-0.88 0.734,-1.262 1.526,-1.262 0.63,0 1.327,0.198 1.327,0.953 0,0.719 -0.836,0.844 -1.672,1.027 -0.836,0.184 -1.679,0.425 -1.679,1.386 0,1.064 0.945,1.533 1.899,1.533 1.071,0 1.885,-0.506 1.929,-1.657 z" /></g><g
           transform="translate(1649.6069,762.0959)"
           id="g5460"><path
             id="path5462"
             style="fill:#f59c00;fill-opacity:1;fill-rule:nonzero;stroke:none"
             d="M 0,0 H 1.159 C 1.636,0 2.92,0.132 2.92,2.061 2.92,3.308 2.457,4.063 1.174,4.063 H 0 Z M -0.696,4.649 H 1.1 c 1.614,0 2.516,-0.806 2.516,-2.493 0,-1.753 -0.77,-2.743 -2.516,-2.743 h -1.796 z" /></g><g
           transform="translate(1654.2104,766.7454)"
           id="g5464"><path
             id="path5466"
             style="fill:#f59c00;fill-opacity:1;fill-rule:nonzero;stroke:none"
             d="M 0,0 H 3.616 V -0.586 H 0.696 V -2.251 H 3.417 V -2.838 H 0.696 V -4.649 H 3.638 V -5.236 H 0 Z" /></g><g
           transform="translate(1658.8286,766.7454)"
           id="g5468"><path
             id="path5470"
             style="fill:#f59c00;fill-opacity:1;fill-rule:nonzero;stroke:none"
             d="M 0,0 H 0.74 L 3.498,-4.247 H 3.513 V 0 h 0.66 V -5.236 H 3.41 L 0.674,-1.034 H 0.66 V -5.236 H 0 Z" /></g><g
           transform="translate(1632.0883,754.3621)"
           id="g5472"><path
             id="path5474"
             style="fill:#000000;fill-opacity:1;fill-rule:nonzero;stroke:none"
             d="m 0,0 c 0,-1.037 -0.593,-1.585 -1.618,-1.585 -1.06,0 -1.689,0.49 -1.689,1.585 v 2.627 h 0.548 V 0 c 0,-0.726 0.415,-1.123 1.141,-1.123 0.691,0 1.071,0.397 1.071,1.123 V 2.627 H 0 Z" /></g><g
           transform="translate(1633.0731,756.9888)"
           id="g5476"><path
             id="path5478"
             style="fill:#000000;fill-opacity:1;fill-rule:nonzero;stroke:none"
             d="M 0,0 H 0.582 L 2.747,-3.335 H 2.759 V 0 H 3.277 V -4.113 H 2.678 l -2.148,3.3 H 0.518 v -3.3 H 0 Z" /></g><path
           id="path5480"
           style="fill:#000000;fill-opacity:1;fill-rule:nonzero;stroke:none"
           d="m 1637.376,756.989 h 0.547 v -4.113 h -0.547 z" /><g
           transform="translate(1640.578,752.8757)"
           id="g5482"><path
             id="path5484"
             style="fill:#000000;fill-opacity:1;fill-rule:nonzero;stroke:none"
             d="m 0,0 h -0.623 l -1.451,4.113 h 0.593 l 1.176,-3.566 h 0.011 l 1.187,3.566 h 0.57 z" /></g><g
           transform="translate(1642.5875,756.9888)"
           id="g5486"><path
             id="path5488"
             style="fill:#000000;fill-opacity:1;fill-rule:nonzero;stroke:none"
             d="M 0,0 H 2.84 V -0.461 H 0.548 v -1.308 h 2.136 v -0.46 H 0.548 V -3.652 H 2.857 V -4.113 H 0 Z" /></g><g
           transform="translate(1647.9099,755.0933)"
           id="g5490"><path
             id="path5492"
             style="fill:#000000;fill-opacity:1;fill-rule:nonzero;stroke:none"
             d="m 0,0 c 0.513,0 0.95,0.132 0.95,0.732 0,0.403 -0.219,0.702 -0.731,0.702 h -1.36 V 0 Z m -1.688,1.896 h 1.936 c 0.772,0 1.25,-0.421 1.25,-1.078 0,-0.495 -0.219,-0.904 -0.715,-1.042 V -0.236 C 1.261,-0.328 1.359,-0.68 1.4,-1.083 1.434,-1.486 1.411,-1.935 1.641,-2.218 h -0.61 c -0.156,0.168 -0.069,0.611 -0.15,1.014 -0.057,0.403 -0.155,0.743 -0.685,0.743 h -1.337 v -1.757 h -0.547 z" /></g><g
           transform="translate(1652.6616,755.7846)"
           id="g5494"><path
             id="path5496"
             style="fill:#000000;fill-opacity:1;fill-rule:nonzero;stroke:none"
             d="m 0,0 c -0.063,0.588 -0.455,0.841 -1.019,0.841 -0.462,0 -0.923,-0.167 -0.923,-0.702 0,-0.508 0.657,-0.582 1.319,-0.732 0.658,-0.15 1.314,-0.381 1.314,-1.187 0,-0.875 -0.858,-1.227 -1.607,-1.227 -0.922,0 -1.699,0.449 -1.699,1.452 h 0.518 c 0,-0.691 0.576,-0.991 1.199,-0.991 0.495,0 1.042,0.155 1.042,0.749 0,0.564 -0.657,0.662 -1.314,0.806 -0.656,0.144 -1.319,0.334 -1.319,1.089 0,0.835 0.743,1.204 1.493,1.204 0.84,0 1.48,-0.397 1.514,-1.302 z" /></g><path
           id="path5498"
           style="fill:#000000;fill-opacity:1;fill-rule:nonzero;stroke:none"
           d="m 1654.153,756.989 h 0.547 v -4.113 h -0.547 z" /><g
           transform="translate(1656.6755,756.5276)"
           id="g5500"><path
             id="path5502"
             style="fill:#000000;fill-opacity:1;fill-rule:nonzero;stroke:none"
             d="M 0,0 H -1.371 V 0.461 H 1.918 V 0 H 0.548 V -3.652 H 0 Z" /></g><g
           transform="translate(1660.8633,754.5579)"
           id="g5504"><path
             id="path5506"
             style="fill:#000000;fill-opacity:1;fill-rule:nonzero;stroke:none"
             d="M 0,0 V -1.682 H -0.547 V 0 l -1.59,2.431 h 0.651 L -0.253,0.472 0.95,2.431 h 0.622 z" /></g><g
           transform="translate(1666.4674,753.2386)"
           id="g5508"><path
             id="path5510"
             style="fill:#000000;fill-opacity:1;fill-rule:nonzero;stroke:none"
             d="M 0,0 C 1.002,0 1.423,0.864 1.423,1.694 1.423,2.523 1.002,3.387 0,3.387 -1.003,3.387 -1.423,2.523 -1.423,1.694 -1.423,0.864 -1.003,0 0,0 m 0,3.848 c 1.307,0 1.97,-1.037 1.97,-2.154 0,-1.118 -0.663,-2.155 -1.97,-2.155 -1.308,0 -1.97,1.037 -1.97,2.155 0,1.117 0.662,2.154 1.97,2.154" /></g><g
           transform="translate(1669.2142,756.9888)"
           id="g5512"><path
             id="path5514"
             style="fill:#000000;fill-opacity:1;fill-rule:nonzero;stroke:none"
             d="M 0,0 H 2.702 V -0.461 H 0.548 v -1.308 h 1.889 v -0.46 H 0.548 V -4.113 H 0 Z" /></g><g
           transform="translate(1675.0608,754.5748)"
           id="g5516"><path
             id="path5518"
             style="fill:#000000;fill-opacity:1;fill-rule:nonzero;stroke:none"
             d="M 0,0 H 1.394 L 0.708,1.919 H 0.697 Z M 0.409,2.414 H 1.014 L 2.621,-1.699 H 2.016 l -0.449,1.238 h -1.74 l -0.461,-1.238 h -0.564 z" /></g><g
           transform="translate(1678.7469,755.0187)"
           id="g5520"><path
             id="path5522"
             style="fill:#000000;fill-opacity:1;fill-rule:nonzero;stroke:none"
             d="m 0,0 h 1.071 c 0.616,-0.006 0.898,0.265 0.898,0.755 0,0.489 -0.282,0.754 -0.898,0.754 H 0 Z m -0.548,1.97 h 1.804 c 0.817,0 1.26,-0.455 1.26,-1.215 0,-0.761 -0.443,-1.222 -1.26,-1.216 H 0 v -1.682 h -0.548 z" /></g><g
           transform="translate(1682.5939,755.0187)"
           id="g5524"><path
             id="path5526"
             style="fill:#000000;fill-opacity:1;fill-rule:nonzero;stroke:none"
             d="m 0,0 h 1.072 c 0.616,-0.006 0.899,0.265 0.899,0.755 0,0.489 -0.283,0.754 -0.899,0.754 H 0 Z m -0.547,1.97 h 1.803 c 0.818,0 1.261,-0.455 1.261,-1.215 0,-0.761 -0.443,-1.222 -1.261,-1.216 H 0 v -1.682 h -0.547 z" /></g><g
           transform="translate(1685.894,756.9888)"
           id="g5528"><path
             id="path5530"
             style="fill:#000000;fill-opacity:1;fill-rule:nonzero;stroke:none"
             d="M 0,0 H 0.547 V -3.652 H 2.725 V -4.113 H 0 Z" /></g><path
           id="path5532"
           style="fill:#000000;fill-opacity:1;fill-rule:nonzero;stroke:none"
           d="m 1689.235,756.989 h 0.547 v -4.113 h -0.547 z" /><g
           transform="translate(1690.8181,756.9888)"
           id="g5534"><path
             id="path5536"
             style="fill:#000000;fill-opacity:1;fill-rule:nonzero;stroke:none"
             d="M 0,0 H 2.84 V -0.461 H 0.548 v -1.308 h 2.136 v -0.46 H 0.548 V -3.652 H 2.857 V -4.113 H 0 Z" /></g><g
           transform="translate(1694.9943,753.3364)"
           id="g5538"><path
             id="path5540"
             style="fill:#000000;fill-opacity:1;fill-rule:nonzero;stroke:none"
             d="m 0,0 h 0.911 c 0.374,0 1.381,0.104 1.381,1.619 0,0.979 -0.362,1.572 -1.37,1.572 H 0 Z m -0.548,3.652 h 1.413 c 1.267,0 1.975,-0.634 1.975,-1.959 0,-1.376 -0.605,-2.154 -1.975,-2.154 h -1.413 z" /></g><g
           transform="translate(1702.7064,755.7846)"
           id="g5542"><path
             id="path5544"
             style="fill:#000000;fill-opacity:1;fill-rule:nonzero;stroke:none"
             d="m 0,0 c -0.063,0.588 -0.455,0.841 -1.019,0.841 -0.462,0 -0.922,-0.167 -0.922,-0.702 0,-0.508 0.657,-0.582 1.319,-0.732 0.657,-0.15 1.313,-0.381 1.313,-1.187 0,-0.875 -0.858,-1.227 -1.607,-1.227 -0.922,0 -1.699,0.449 -1.699,1.452 h 0.519 c 0,-0.691 0.575,-0.991 1.197,-0.991 0.496,0 1.043,0.155 1.043,0.749 0,0.564 -0.657,0.662 -1.313,0.806 -0.657,0.144 -1.319,0.334 -1.319,1.089 0,0.835 0.742,1.204 1.492,1.204 0.84,0 1.48,-0.397 1.514,-1.302 z" /></g><g
           transform="translate(1707.067,755.7504)"
           id="g5546"><path
             id="path5548"
             style="fill:#000000;fill-opacity:1;fill-rule:nonzero;stroke:none"
             d="m 0,0 c -0.116,0.581 -0.582,0.875 -1.152,0.875 -0.979,0 -1.394,-0.806 -1.394,-1.665 0,-0.938 0.415,-1.722 1.4,-1.722 0.72,0 1.134,0.507 1.186,1.187 h 0.547 c -0.103,-1.026 -0.743,-1.648 -1.779,-1.648 -1.28,0 -1.902,0.945 -1.902,2.143 0,1.192 0.681,2.166 1.948,2.166 0.858,0 1.566,-0.461 1.693,-1.336 z" /></g><path
           id="path5550"
           style="fill:#000000;fill-opacity:1;fill-rule:nonzero;stroke:none"
           d="m 1708.471,756.989 h 0.547 v -4.113 h -0.547 z" /><g
           transform="translate(1710.0552,756.9888)"
           id="g5552"><path
             id="path5554"
             style="fill:#000000;fill-opacity:1;fill-rule:nonzero;stroke:none"
             d="M 0,0 H 2.84 V -0.461 H 0.547 v -1.308 h 2.138 v -0.46 H 0.547 v -1.423 h 2.31 V -4.113 H 0 Z" /></g><g
           transform="translate(1713.6837,756.9888)"
           id="g5556"><path
             id="path5558"
             style="fill:#000000;fill-opacity:1;fill-rule:nonzero;stroke:none"
             d="M 0,0 H 0.582 L 2.748,-3.335 H 2.759 V 0 h 0.519 v -4.113 h -0.6 l -2.148,3.3 H 0.518 v -3.3 H 0 Z" /></g><g
           transform="translate(1720.8545,755.7504)"
           id="g5560"><path
             id="path5562"
             style="fill:#000000;fill-opacity:1;fill-rule:nonzero;stroke:none"
             d="m 0,0 c -0.115,0.581 -0.582,0.875 -1.151,0.875 -0.98,0 -1.394,-0.806 -1.394,-1.665 0,-0.938 0.414,-1.722 1.399,-1.722 0.721,0 1.135,0.507 1.187,1.187 h 0.547 c -0.103,-1.026 -0.744,-1.648 -1.78,-1.648 -1.279,0 -1.9,0.945 -1.9,2.143 0,1.192 0.679,2.166 1.946,2.166 0.859,0 1.568,-0.461 1.694,-1.336 z" /></g><g
           transform="translate(1722.2362,756.9888)"
           id="g5564"><path
             id="path5566"
             style="fill:#000000;fill-opacity:1;fill-rule:nonzero;stroke:none"
             d="M 0,0 H 2.84 V -0.461 H 0.548 v -1.308 h 2.137 v -0.46 H 0.548 V -3.652 H 2.857 V -4.113 H 0 Z" /></g><g
           transform="translate(1728.2504,755.7846)"
           id="g5568"><path
             id="path5570"
             style="fill:#000000;fill-opacity:1;fill-rule:nonzero;stroke:none"
             d="m 0,0 c -0.063,0.588 -0.455,0.841 -1.019,0.841 -0.462,0 -0.923,-0.167 -0.923,-0.702 0,-0.508 0.656,-0.582 1.319,-0.732 0.657,-0.15 1.314,-0.381 1.314,-1.187 0,-0.875 -0.859,-1.227 -1.607,-1.227 -0.922,0 -1.7,0.449 -1.7,1.452 h 0.518 c 0,-0.691 0.577,-0.991 1.199,-0.991 0.495,0 1.042,0.155 1.042,0.749 0,0.564 -0.656,0.662 -1.313,0.806 -0.656,0.144 -1.319,0.334 -1.319,1.089 0,0.835 0.743,1.204 1.492,1.204 0.841,0 1.481,-0.397 1.515,-1.302 z" /></g><g
           transform="translate(1570.1168,784.0376)"
           id="g5572"><path
             id="path5574"
             style="fill:#000000;fill-opacity:1;fill-rule:nonzero;stroke:none"
             d="M 0,0 V -0.002 H -7.5 V 0 H -8.839 V -14.803 H -21.955 V 0 h -6.474 v -31.061 h 6.474 v 14.877 H -8.839 V -31.06 H -7.5 V -1.381 H 0 V -31.06 H 6.474 V 0 Z" /></g><g
           transform="translate(1601.2439,784.0376)"
           id="g5576"><path
             id="path5578"
             style="fill:#000000;fill-opacity:1;fill-rule:nonzero;stroke:none"
             d="m 0,0 -16.742,-28.71 v 27.329 h 8.257 v 1.38 h -8.257 V 0 h -1.339 v -31.006 l -0.032,-0.055 h 6.792 L 6.891,0 Z" /></g><g
           transform="translate(1615.6157,784.0376)"
           id="g5580"><path
             id="path5582"
             style="fill:#f59c00;fill-opacity:1;fill-rule:nonzero;stroke:none"
             d="m 0,0 -18.112,-31.061 h 6.792 L 6.891,0 Z" /></g></g></g></g></svg>
