<svg id="a449c3b3-a6c4-43b9-9759-5aad54d38e04" data-name="Ebene 1" xmlns="http://www.w3.org/2000/svg" width="399.4" height="116.78" viewBox="0 0 399.4 116.78">
  <g>
    <polygon points="19.81 81.52 0 47.09 6.98 47.09 22.41 74.78 37.19 47.09 43.6 47.09 24.77 81.52 19.81 81.52 19.81 81.52" fill="#777"/>
    <polygon points="59.68 81.52 53.18 81.52 53.18 47.18 59.68 47.18 59.68 81.52 59.68 81.52" fill="#777"/>
    <path d="M83.47,68.53h18.27l-9.18-16.4-9.09,16.4Zm-13.64,13L89.72,47.09h5.92L116,81.52H109l-4.46-8H80.71l-4.39,8Z" fill="#777"/>
    <path d="M131.86,54a39,39,0,0,1,.49,6.17V81.52h-6V47.09h4.95l25.25,22.5a25.8,25.8,0,0,1,4.14,4.71,35.33,35.33,0,0,1-.57-6.42V47.09h6V81.52h-4.46L135.92,58.71A20.18,20.18,0,0,1,131.86,54Z" fill="#777"/>
    <polygon points="198.6 52.21 198.6 81.52 192.1 81.52 192.1 52.21 175.87 52.21 175.87 47.09 214.92 47.09 214.92 52.21 198.6 52.21 198.6 52.21" fill="#777"/>
    <polygon points="231 81.52 224.5 81.52 224.5 47.18 231 47.18 231 81.52 231 81.52" fill="#777"/>
    <path d="M277.11,52.21H253v8.93h22.08q4.88,0,6.58,1.71t1.79,6.41V73.4q0,4.71-1.79,6.42t-6.58,1.7H254.14c-3.31,0-5.55-.57-6.74-1.7s-1.71-3.28-1.71-6.42v-1l5.93-1.22v5.11h26V66.66H255.43c-3.24,0-5.46-.56-6.65-1.7s-1.71-3.28-1.71-6.42V55.3c0-3.2.57-5.36,1.71-6.5s3.41-1.71,6.65-1.71H274.6c3.08,0,5.25.55,6.49,1.63s2,3.06,2,5.93v.81l-5.93,1.3V52.21Z" fill="#777"/>
    <polygon points="134.98 116.55 134.98 114.78 129.49 114.78 129.49 101.78 127.49 101.78 127.49 116.55 134.98 116.55 134.98 116.55" fill="#777"/>
    <polygon points="150.21 116.55 150.21 114.78 144.6 114.78 144.6 109.87 149.47 109.87 149.47 108.12 144.6 108.12 144.6 103.55 149.51 103.55 150.16 101.78 142.61 101.78 142.61 116.55 150.21 116.55 150.21 116.55" fill="#777"/>
    <path d="M167.93,112.18a3.64,3.64,0,0,0-2.89-3.56v0a3.3,3.3,0,0,0,2-3.2,3.63,3.63,0,0,0-4-3.61h-4.3v14.77h4c3.9,0,5.2-2.33,5.2-4.37Zm-5.54-8.63c1.73,0,2.53.85,2.53,2.22a2.33,2.33,0,0,1-2.42,2.35h-1.79v-4.57Zm3.41,8.68c0,1.47-1.05,2.55-3.05,2.55h-2v-4.89h2.15c1.82,0,2.94,1,2.94,2.34Z" fill="#777"/>
    <polygon points="183.79 116.55 183.79 114.78 178.19 114.78 178.19 109.87 183.05 109.87 183.05 108.12 178.19 108.12 178.19 103.55 183.09 103.55 183.74 101.78 176.19 101.78 176.19 116.55 183.79 116.55 183.79 116.55" fill="#777"/>
    <path d="M204.87,116.55V101.78h-2v9.59c0,.74,0,1.37,0,1.93h0a15.49,15.49,0,0,0-1.62-2.35l-6.92-9.17h-2v14.77h2v-9.88c0-.74,0-1.35-.06-1.84h0a16.28,16.28,0,0,0,1.52,2.2l7.22,9.52Z" fill="#777"/>
    <path d="M235.16,116.55c-2.35-3.79-4-6.48-4.5-6.74v0a4.15,4.15,0,0,0,2.82-3.94c0-2.24-1.41-4.06-5-4.06h-3.36v14.77h2v-6.12h1.47c.61.14,1.89,2.33,4.24,6.12Zm-3.76-10.49a2.75,2.75,0,0,1-2.83,2.71h-1.45v-5.22h1.39c2.12,0,2.89,1.17,2.89,2.51Z" fill="#777"/>
    <path d="M254.09,116.55l-5.76-14.81h-1.28l-5.67,14.81h2l1.39-3.86h5.72l1.5,3.86Zm-4.31-5.6h-4.34l1.63-4.47a15.87,15.87,0,0,0,.58-1.81h0a15.11,15.11,0,0,0,.56,1.83l1.54,4.45Z" fill="#777"/>
    <path d="M272.79,111.42v-9.64h-2v9.5a4,4,0,0,1-.88,2.78,3.76,3.76,0,0,1-2.86,1,3.47,3.47,0,0,1-2.63-1,4.14,4.14,0,0,1-1-2.91v-9.37h-2v9.41a5.8,5.8,0,0,0,1.44,4.24,5.72,5.72,0,0,0,4.12,1.35,5.85,5.85,0,0,0,4.39-1.53,5.34,5.34,0,0,0,1.39-3.83Z" fill="#777"/>
    <path d="M296.29,116.55V101.78h-2l-4.21,6.64a10.5,10.5,0,0,0-.76,1.41h-.05a10.76,10.76,0,0,0-.8-1.39L284,101.78h-2v14.77h2V106.49a10.05,10.05,0,0,0-.09-1.55h0a8.68,8.68,0,0,0,.81,1.46l3.9,5.85h1.17l3.65-5.83a8.54,8.54,0,0,0,.81-1.48h0c0,.7,0,1,0,1.57v10Z" fill="#777"/>
    <path d="M328.21,115.54v-6.23h-2v5.16a5.44,5.44,0,0,1-2.65.53c-3.54,0-5.71-2.28-5.71-5.84,0-3.32,2-5.74,5.76-5.74a9,9,0,0,1,4.12,1.12l0-2a10.55,10.55,0,0,0-4.19-.85c-4.7,0-7.87,3.16-7.87,7.71a7,7,0,0,0,7.38,7.4,11.2,11.2,0,0,0,5.13-1.24Z" fill="#777"/>
    <polygon points="344.74 116.55 344.74 114.78 339.13 114.78 339.13 109.87 344 109.87 344 108.12 339.13 108.12 339.13 103.55 344.04 103.55 344.69 101.78 337.14 101.78 337.14 116.55 344.74 116.55 344.74 116.55" fill="#777"/>
    <path d="M362.46,112.18a3.65,3.65,0,0,0-2.89-3.56v0a3.3,3.3,0,0,0,2-3.2,3.63,3.63,0,0,0-4-3.61h-4.3v14.77h4c3.9,0,5.2-2.33,5.2-4.37Zm-5.54-8.63c1.73,0,2.53.85,2.53,2.22a2.33,2.33,0,0,1-2.42,2.35h-1.79v-4.57Zm3.41,8.68c0,1.47-1.06,2.55-3.05,2.55h-2v-4.89h2.15c1.82,0,2.94,1,2.94,2.34Z" fill="#777"/>
    <polygon points="378.32 116.55 378.32 114.78 372.71 114.78 372.71 109.87 377.58 109.87 377.58 108.12 372.71 108.12 372.71 103.55 377.62 103.55 378.27 101.78 370.72 101.78 370.72 116.55 378.32 116.55 378.32 116.55" fill="#777"/>
    <path d="M399.4,116.55V101.78h-2v9.59c0,.74,0,1.37,0,1.93h0a16.29,16.29,0,0,0-1.62-2.35l-6.92-9.17h-2v14.77h2v-9.88c0-.74,0-1.35-.07-1.84h.05a16.28,16.28,0,0,0,1.52,2.2l7.22,9.52Z" fill="#777"/>
  </g>
  <g>
    <path d="M55.93,34.34c-1.17,2.11-5.39,5.74-7.06,2.2-1.36-8.66-1.76-17.66,1.32-26,1.1-1.75,3.14-2.74,5-3.47A170.73,170.73,0,0,1,76.53.72c1-.22,3.88-.51,2.4,1.13-10,9-17.39,20.32-23,32.49Z" fill="#ff8500"/>
    <path d="M61.54,35.64c-1.17,4,2.51,6.12,5.92,4.38a259.17,259.17,0,0,1,48.39-29.48c2.83-1.79,1-3.85-1.48-4.72A175.59,175.59,0,0,0,89.93.06a8.83,8.83,0,0,0-6.42,1.72c-9.72,9.57-16.68,21.37-22,33.86Z" fill="#ff8500"/>
  </g>
</svg>